<svg width="182" height="56" viewBox="0 0 182 56" fill="none" xmlns="http://www.w3.org/2000/svg">
<path d="M83.0001 38.7397V20.9315L75.1097 32.726L67.274 21V38.7397H64.6302V17.2603H67.8905L75.1645 28.5753L82.4521 17.2603H85.7124V38.7397H83.0001Z" fill="#15181B"/>
<path d="M97.6303 39.0959C91.8769 39.0959 88.5892 35.6849 88.5892 29.726V17.2603H91.3015V29.5616C91.3015 34.0411 93.6988 36.7123 97.6988 36.7123C101.685 36.7123 104.069 34.0959 104.069 29.726V17.2603H106.781V29.5205C106.767 35.6027 103.439 39.0959 97.6303 39.0959Z" fill="#15181B"/>
<path d="M109.644 38.7397V17.2603H112.356V36.3836H124.315V38.7397H109.644Z" fill="#15181B"/>
<path d="M127.192 38.7397V17.2603H129.904V36.3836H141.877V38.7397H127.192Z" fill="#15181B"/>
<path d="M179.534 38.7397L166.014 21.3014V38.7397H163.37V17.2603H166.123L179.274 34.2466V17.2603H181.918V38.7397H179.534Z" fill="#15181B"/>
<path d="M144.753 38.7397V17.2603H160.493V19.5479H147.466V26.7534H157.493V29.0411H147.466V36.452H160.493V38.7397H144.753Z" fill="#4CD7A2"/>
<path d="M148.438 14.7811V13.6715C148.438 13.151 148.863 12.7263 149.384 12.7263H156.548C157.069 12.7263 157.493 13.151 157.493 13.6715V14.7811H148.438Z" fill="#4CD7A2"/>
<path d="M36.5068 38.8769L19.7808 22.1508L3.78079 38.1508L1.54791 35.918L19.7808 17.6851L38.7397 36.644L36.5068 38.8769Z" fill="#4CD7A2"/>
<path d="M52.2192 38.1508L36.2192 22.1508L29.1096 29.2467L26.8904 27.0275L36.2192 17.6851L54.4521 35.918L52.2192 38.1508Z" fill="#4CD7A2"/>
<path d="M53.548 39.4384C55.1233 35.9452 56 32.0685 56 28C56 12.5617 43.4384 0 28 0C12.5617 0 0 12.5617 0 28C0 32.0685 0.876713 35.9452 2.45206 39.4384L4.86302 37.0274C3.76713 34.2192 3.16439 31.1781 3.16439 27.9863C3.15069 14.3014 14.3014 3.15069 28 3.15069C41.6987 3.15069 52.8494 14.3014 52.8494 28C52.8494 31.1918 52.2466 34.2329 51.1507 37.0411L53.548 39.4384Z" fill="#4CD7A2"/>
<path d="M45.9727 45.1506C41.4384 49.8904 35.0685 52.8493 28 52.8493C20.9452 52.8493 14.5617 49.8904 10.0274 45.1506L7.80823 47.3698C12.9041 52.6849 20.0822 56 28 56C35.9315 56 43.0959 52.6849 48.1918 47.3698L45.9727 45.1506Z" fill="#4CD7A2"/>
</svg>
