<svg width="27" height="32" viewBox="0 0 27 32" fill="none"
  xmlns="http://www.w3.org/2000/svg">
  <g clip-path="url(#clip0_264_4427)">
    <path d="M27 9.15196V13.3479L13.3689 5.14244L9.09249 7.79994L27 18.6629V22.2528C27 23.409 26.703 23.9778 26.5545 24.1177L14.6608 31.6705C13.6985 32.2673 12.6859 31.9191 12.2998 31.6705L2.41058 25.6562C0.450551 24.7611 -0.00975892 23.8535 0.00508976 23.5116V18.6629L13.5916 26.7751L17.8235 24.1177L0.00508976 13.3479V8.63913C-0.0661841 8.22886 0.628735 7.47358 0.985103 7.14722L12.6116 0.247128C13.0393 -0.200445 13.9777 0.0606397 14.3935 0.247128L25.3518 6.86749C26.5991 7.46423 26.9703 8.63913 27 9.15196Z" fill="url(#paint0_linear_264_4427)"/>
  </g>
  <defs>
    <linearGradient id="paint0_linear_264_4427" x1="2.62822" y1="26.9476" x2="21.828" y2="27.2456" gradientUnits="userSpaceOnUse">
      <stop stop-color="#00F07F"/>
      <stop offset="0.5625" stop-color="#00D372"/>
      <stop offset="1" stop-color="#01BF69"/>
    </linearGradient>
    <clipPath id="clip0_264_4427">
      <rect width="27" height="32" fill="white"/>
    </clipPath>
  </defs>
</svg>
