<?xml version="1.0" standalone="no"?>
<!DOCTYPE svg PUBLIC "-//W3C//DTD SVG 20010904//EN"
 "http://www.w3.org/TR/2001/REC-SVG-20010904/DTD/svg10.dtd">
<svg version="1.0"
  xmlns="http://www.w3.org/2000/svg" width="500.000000pt" height="500.000000pt" viewBox="0 0 500.000000 500.000000" preserveAspectRatio="xMidYMid meet">

  <g transform="translate(0.000000,500.000000) scale(0.100000,-0.100000)" fill="#BF2026" stroke="none">
    <path d="M2471 3874 c-13 -16 -21 -41 -21 -65 0 -30 -4 -39 -22 -44 -71 -22
-128 -102 -128 -180 0 -100 59 -165 195 -216 72 -27 113 -62 121 -104 18 -99
-91 -152 -225 -108 -48 15 -52 15 -71 -2 -22 -20 -27 -67 -7 -82 17 -13 89
-33 121 -33 24 0 26 -4 26 -38 0 -45 24 -72 63 -72 33 0 57 34 57 82 0 33 4
38 45 59 125 62 151 217 55 320 -24 26 -63 50 -123 75 -107 45 -137 73 -137
124 0 31 6 44 32 65 32 27 34 27 128 21 95 -7 96 -6 110 18 19 36 -7 73 -57
81 -60 10 -63 12 -63 49 0 38 -31 76 -61 76 -10 0 -27 -12 -38 -26z"/>
    <path d="M3089 3724 c-8 -9 -18 -32 -24 -51 -9 -30 -17 -37 -63 -52 -79 -27
-121 -73 -136 -150 -16 -87 29 -163 143 -240 81 -56 96 -75 96 -128 0 -38 -5
-49 -34 -75 -30 -27 -39 -30 -85 -26 -28 3 -77 17 -108 33 -63 30 -102 29
-111 -5 -11 -41 4 -60 72 -91 36 -18 67 -33 69 -34 1 -1 -2 -14 -7 -29 -22
-55 33 -106 81 -74 12 8 26 32 32 53 10 33 17 39 53 50 74 22 113 54 141 113
20 44 24 64 19 108 -7 71 -30 107 -102 161 -33 24 -73 54 -88 66 -33 24 -57
66 -57 97 0 12 13 35 29 51 37 37 92 38 171 5 59 -26 80 -23 100 14 16 30 -4
58 -56 80 -43 19 -44 20 -42 63 1 26 -4 52 -11 61 -17 21 -65 21 -82 0z"/>
    <path d="M1810 3703 c-12 -15 -18 -33 -15 -42 21 -51 17 -76 -17 -108 -53 -48
-69 -119 -46 -196 25 -84 118 -137 242 -137 69 0 138 -26 155 -58 19 -36 13
-88 -15 -121 -29 -34 -103 -61 -169 -61 -52 0 -81 -26 -71 -64 8 -32 39 -41
121 -33 l64 6 6 -29 c7 -32 38 -60 66 -60 40 0 63 66 38 111 -8 17 -3 28 34
69 74 83 77 194 6 274 -39 45 -95 66 -204 77 -128 13 -147 23 -168 90 -8 26
20 77 51 93 16 8 59 21 96 27 56 11 69 17 77 37 19 50 -20 78 -95 67 -41 -6
-44 -5 -50 19 -8 31 -43 66 -67 66 -10 0 -27 -12 -39 -27z"/>
    <path d="M2420 2701 c-134 -28 -260 -151 -309 -300 -29 -89 -29 -233 0 -321
40 -123 124 -222 234 -276 55 -26 69 -29 160 -29 90 1 106 4 160 30 100 49
178 139 225 260 34 88 35 253 1 345 -46 125 -124 214 -230 262 -69 32 -172 44
-241 29z m185 -130 c122 -55 195 -179 195 -331 0 -177 -97 -314 -248 -350
-175 -41 -352 134 -352 350 0 146 91 294 207 336 55 19 150 17 198 -5z"/>
    <path d="M1346 2510 c-135 -53 -194 -205 -133 -342 13 -29 86 -168 162 -308
75 -140 152 -282 170 -315 18 -33 50 -94 73 -135 22 -41 65 -122 95 -180 64
-121 89 -144 131 -117 45 30 35 65 -78 265 -23 42 -65 120 -93 172 -28 52 -92
172 -143 265 -191 352 -220 411 -220 450 0 79 58 145 128 145 80 0 114 -41
269 -335 128 -241 135 -254 198 -351 46 -72 60 -85 111 -110 l59 -29 432 2
c466 3 465 2 531 58 46 38 87 101 157 240 85 167 243 445 269 473 62 69 149
67 205 -4 16 -21 21 -41 21 -88 0 -57 -4 -69 -61 -166 -33 -58 -68 -121 -78
-140 -29 -57 -112 -213 -128 -237 -7 -13 -35 -65 -62 -115 -26 -51 -59 -113
-73 -138 -14 -25 -44 -81 -68 -125 -24 -44 -53 -99 -66 -123 -30 -53 -30 -76
-2 -102 41 -38 64 -25 114 65 15 28 36 66 47 85 11 19 89 161 174 315 85 154
158 288 164 298 5 9 42 81 81 160 64 126 72 150 76 210 5 84 -13 137 -65 191
-49 50 -105 77 -172 83 -131 11 -233 -95 -394 -407 -142 -276 -192 -363 -225
-388 l-35 -27 -416 3 c-409 3 -417 3 -448 25 -33 22 -84 103 -173 271 -66 127
-194 349 -231 403 -77 112 -186 149 -303 103z"/>
  </g>
</svg>
